<svg width="26" height="25" viewBox="0 0 26 25" fill="none" xmlns="http://www.w3.org/2000/svg">
    <path d="M16.9363 12.5735V12.8877C16.9363 13.3992 16.4978 13.8158 15.957 13.8158C15.4163 13.8158 14.9778 13.3992 14.9778 12.8877V12.5735C14.9778 12.0619 15.4163 11.6454 15.957 11.6454C16.4978 11.6454 16.9363 12.0619 16.9363 12.5735Z" fill="white"/>
    <path d="M16.2555 18.2371C16.0948 19.3917 15.1959 20.3344 13.9975 20.6778C13.9463 20.6924 13.9025 20.7071 13.8513 20.7144C13.8221 20.7144 13.8002 20.729 13.7709 20.729C13.749 20.729 13.7271 20.7363 13.7125 20.7436C13.6905 20.7436 13.6686 20.7509 13.6394 20.7582C13.6248 20.7582 13.6028 20.7582 13.5882 20.7655C13.5663 20.7655 13.5444 20.7655 13.5225 20.7728C13.4128 20.7874 13.3032 20.8021 13.1936 20.8021C13.1717 20.8021 13.1571 20.8021 13.1352 20.8021C13.1205 20.8021 13.0986 20.8021 13.084 20.8021C13.0548 20.8021 13.0329 20.8021 13.0036 20.8021C12.9744 20.8021 12.9525 20.8021 12.9232 20.8021C12.9086 20.8021 12.8867 20.8021 12.8721 20.8021C12.8502 20.8021 12.8355 20.8021 12.8136 20.8021C12.704 20.8021 12.5944 20.7874 12.4848 20.7728C12.4629 20.7728 12.4409 20.7728 12.419 20.7655C12.4044 20.7655 12.3825 20.7655 12.3679 20.7582C12.3459 20.7582 12.324 20.7509 12.2948 20.7436C12.2729 20.7436 12.2509 20.7363 12.2363 20.729C12.2071 20.729 12.1852 20.7144 12.1559 20.7144C12.1048 20.6998 12.0536 20.6924 12.0098 20.6778C10.8113 20.3344 9.91248 19.3917 9.75171 18.2371C9.72248 18.0398 9.88325 17.8644 10.0806 17.8644H15.9267C16.124 17.8644 16.2774 18.0398 16.2555 18.2371Z" fill="white"/>
    <path d="M12.7193 15.9353V15.9499C12.6535 16.0814 12.4927 16.1399 12.3612 16.0814L11.7108 15.7818C11.5793 15.7233 11.5208 15.5626 11.5793 15.431V15.4164C11.645 15.2849 11.8058 15.2264 11.9374 15.2849L12.5877 15.5845C12.7193 15.6429 12.7777 15.8037 12.7193 15.9353Z" fill="white"/>
    <path d="M14.3048 15.7818L13.6544 16.0814C13.5229 16.1399 13.3621 16.0814 13.3036 15.9499V15.9353C13.2379 15.8037 13.2963 15.6429 13.4279 15.5845L14.0783 15.2849C14.2098 15.2264 14.3705 15.2849 14.429 15.4164V15.431C14.4948 15.5626 14.4363 15.7233 14.3048 15.7818Z" fill="white"/>
    <path d="M22.0512 9.31441C21.3716 9.05133 20.8308 9.19018 20.4581 9.40941C20.3631 9.13902 20.2608 8.86864 20.1366 8.60556C20.0489 8.41556 19.9539 8.22556 19.8516 8.04287C18.8139 6.14288 17.0674 4.56442 15.0577 3.89943L15.0212 2.81789L13.7204 3.59981C13.6693 3.59981 13.6181 3.5852 13.567 3.5852C13.472 3.57789 13.377 3.57058 13.282 3.56327L13.092 2.74482L13.0335 2.50366C12.9678 2.50366 12.902 2.50366 12.8435 2.50366C11.6378 2.59866 11.0385 3.70212 10.9435 3.88481C8.94123 4.54981 7.19471 6.12826 6.15702 8.02826C6.05471 8.21095 5.9597 8.40095 5.87201 8.59095C5.75508 8.85402 5.64547 9.12441 5.55047 9.39479C5.53585 9.38748 5.52123 9.37287 5.49931 9.36556C5.12662 9.16095 4.60047 9.04402 3.95009 9.29979C2.52509 9.85517 2.13779 12.2082 3.2924 13.6698C3.76009 14.269 4.25702 14.5905 4.73933 14.7367C4.73933 14.7659 4.7247 14.7878 4.7247 14.8171C4.63701 15.2044 4.59317 15.6063 4.59317 16.0155C4.59317 18.8144 6.66123 21.2186 9.61353 22.2782C10.2858 22.5194 11.0093 22.6947 11.762 22.7824C12.1347 22.8263 12.522 22.8555 12.9093 22.8555C12.9385 22.8555 12.9678 22.8555 12.997 22.8555C17.6374 22.8555 21.4008 19.7936 21.4008 16.0082C21.4008 15.599 21.357 15.1971 21.2693 14.8098C21.2693 14.7805 21.2547 14.7586 21.2473 14.7294C21.7223 14.5832 22.2193 14.2544 22.6943 13.6625C23.8489 12.2009 23.4689 9.84787 22.0366 9.29248L22.0512 9.31441ZM18.8943 13.8086C18.8358 13.9402 18.7627 14.0717 18.6823 14.1959C18.3535 14.7148 18.2585 15.3578 18.4558 15.9425C18.602 16.3809 18.7408 16.8778 18.7408 17.2505C18.7408 19.9617 16.1758 22.1613 13.0043 22.1613C11.9081 22.1613 10.8851 21.8982 10.0155 21.4451C8.36393 20.5828 7.26777 19.0263 7.26777 17.2505C7.26777 16.8778 7.39932 16.3809 7.55278 15.9425C7.75009 15.3578 7.66238 14.7148 7.32623 14.1959C7.24584 14.0717 7.17278 13.9402 7.11432 13.8086C6.93163 13.414 6.82931 12.9682 6.82931 12.5079C6.82931 11.324 7.48701 10.2936 8.48085 9.71633C8.99969 9.41671 9.60623 9.24864 10.2566 9.24864C10.907 9.24864 11.4916 9.41671 12.0031 9.70171C12.6316 10.0598 13.3916 10.0598 14.0201 9.70171C14.5316 9.41671 15.1235 9.24864 15.7666 9.24864C17.6593 9.24864 19.1939 10.7102 19.1939 12.5079C19.1939 12.9682 19.0916 13.414 18.9089 13.8086H18.8943Z" fill="white"/>
    <path d="M11.0387 12.5735V12.8877C11.0387 13.3992 10.6003 13.8158 10.0595 13.8158C9.51875 13.8158 9.08029 13.3992 9.08029 12.8877V12.5735C9.08029 12.0619 9.51875 11.6454 10.0595 11.6454C10.3664 11.6454 10.6368 11.7769 10.8195 11.9815C10.8414 12.0035 10.856 12.0254 10.878 12.0546C10.8853 12.0692 10.8926 12.0765 10.8999 12.0912C10.9145 12.1131 10.9291 12.1423 10.9437 12.1715C10.9584 12.2008 10.973 12.2227 10.9803 12.2519C10.9949 12.2812 11.0022 12.3104 11.0095 12.3396C11.0241 12.3835 11.0314 12.4273 11.0387 12.4785C11.0387 12.5077 11.0387 12.5442 11.0387 12.5735Z" fill="white"/>
</svg>
