<svg width="26" height="25" viewBox="0 0 26 25" fill="none" xmlns="http://www.w3.org/2000/svg">
    <path d="M4.76901 21.875C4.35235 21.875 3.98776 21.7187 3.67526 21.4062C3.36276 21.0937 3.20651 20.7292 3.20651 20.3125V4.6875C3.20651 4.27083 3.36276 3.90625 3.67526 3.59375C3.98776 3.28125 4.35235 3.125 4.76901 3.125H16.8003L21.9565 8.28125V20.3125C21.9565 20.7292 21.8003 21.0937 21.4878 21.4062C21.1753 21.7187 20.8107 21.875 20.394 21.875H4.76901ZM7.34714 17.4219H17.8159V15.8594H7.34714V17.4219ZM7.34714 13.2812H17.8159V11.7188H7.34714V13.2812ZM15.9409 9.14062H20.394L15.9409 4.6875V9.14062ZM7.34714 9.14062H12.5815V7.57812H7.34714V9.14062Z" fill="#FAFAFA"/>
</svg>
