<svg width="25" height="29" viewBox="0 0 25 29" fill="none" xmlns="http://www.w3.org/2000/svg">
    <g clip-path="url(#clip0_3129_11818)">
        <g clip-path="url(#clip1_3129_11818)">
            <path d="M24.9993 11.4802C24.9993 12.5354 22.4348 13.3896 19.2702 13.3896C16.1056 13.3896 13.541 12.5354 13.541 11.4802V9.5708C13.541 10.625 16.1056 11.4802 19.2702 11.4802C22.4348 11.4802 24.9993 10.626 24.9993 9.5708" fill="#FAFAFA"/>
            <path d="M19.2702 6.39265C16.1087 6.39265 13.541 5.53328 13.541 4.48328V8.27494C13.541 9.32598 16.1087 10.1854 19.2702 10.1854C22.4316 10.1854 24.9993 9.32598 24.9993 8.27494V4.48328C24.9993 5.53328 22.4316 6.39265 19.2702 6.39265Z" fill="#FAFAFA"/>
            <path d="M25 1.90937C25 0.855208 22.4354 0 19.2708 0C16.1062 0 13.5417 0.854167 13.5417 1.90937V3.18333C13.5417 4.2375 16.1062 5.09271 19.2708 5.09271C22.4354 5.09271 25 4.23854 25 3.18333M11.4583 22.9385C11.4583 23.9937 8.89375 24.8479 5.72917 24.8479C2.56458 24.8479 0 23.9937 0 22.9385V21.0292C0 22.0833 2.56458 22.9375 5.72917 22.9375C8.89375 22.9375 11.4583 22.0833 11.4583 21.0281V22.9385Z" fill="#FAFAFA"/>
            <path d="M5.72917 17.851C2.56771 17.851 0 16.9917 0 15.9417V19.7333C0 20.7844 2.56771 21.6437 5.72917 21.6437C8.89062 21.6437 11.4583 20.7844 11.4583 19.7333V15.9417C11.4583 16.9917 8.89062 17.851 5.72917 17.851Z" fill="#FAFAFA"/>
            <path d="M11.4583 13.3677C11.4583 12.3136 8.89375 11.4584 5.72917 11.4584C2.56458 11.4584 0 12.3125 0 13.3677V14.6417C0 15.6959 2.56458 16.5511 5.72917 16.5511C8.89375 16.5511 11.4583 15.6969 11.4583 14.6417V13.3677ZM20.8333 21.875H18.75V19.1771L16.0521 21.875L14.5833 20.4063L17.2812 17.7084H14.5833V15.625H20.8333V21.875Z" fill="#FAFAFA"/>
        </g>
    </g>
    <defs>
        <clipPath id="clip0_3129_11818">
            <rect width="25" height="25" fill="white"/>
        </clipPath>
        <clipPath id="clip1_3129_11818">
            <rect width="25" height="25" fill="white"/>
        </clipPath>
    </defs>
</svg>
